<mxfile host="app.diagrams.net" modified="2022-03-04T13:39:58.846Z" agent="5.0 (Windows NT 10.0; Win64; x64) AppleWebKit/537.36 (KHTML, like Gecko) Chrome/98.0.4758.102 Safari/537.36" etag="6LehQvd7TuvaDR0UPzAG" version="16.6.4" type="github">
  <diagram id="B6QfZGk_3b5WUlBCMEaY" name="Page-1">
    <mxGraphModel dx="1185" dy="662" grid="1" gridSize="10" guides="1" tooltips="1" connect="1" arrows="1" fold="1" page="1" pageScale="1" pageWidth="1100" pageHeight="1700" math="0" shadow="0">
      <root>
        <mxCell id="0" />
        <mxCell id="1" parent="0" />
        <mxCell id="b-Ls0eRmgNrHy9NxxaQL-1" value="BlackDuck" style="rounded=1;whiteSpace=wrap;html=1;fillColor=#e1d5e7;strokeColor=#9673a6;" vertex="1" parent="1">
          <mxGeometry x="160" y="230" width="130" height="70" as="geometry" />
        </mxCell>
        <mxCell id="b-Ls0eRmgNrHy9NxxaQL-12" style="edgeStyle=orthogonalEdgeStyle;rounded=0;orthogonalLoop=1;jettySize=auto;html=1;entryX=0.5;entryY=0;entryDx=0;entryDy=0;" edge="1" parent="1" source="b-Ls0eRmgNrHy9NxxaQL-2" target="b-Ls0eRmgNrHy9NxxaQL-5">
          <mxGeometry relative="1" as="geometry" />
        </mxCell>
        <mxCell id="b-Ls0eRmgNrHy9NxxaQL-2" value="SonarQube" style="rounded=1;whiteSpace=wrap;html=1;fillColor=#e1d5e7;strokeColor=#9673a6;" vertex="1" parent="1">
          <mxGeometry x="410" y="230" width="130" height="70" as="geometry" />
        </mxCell>
        <mxCell id="b-Ls0eRmgNrHy9NxxaQL-13" style="edgeStyle=orthogonalEdgeStyle;rounded=0;orthogonalLoop=1;jettySize=auto;html=1;entryX=1;entryY=0.5;entryDx=0;entryDy=0;" edge="1" parent="1" source="b-Ls0eRmgNrHy9NxxaQL-3" target="b-Ls0eRmgNrHy9NxxaQL-5">
          <mxGeometry relative="1" as="geometry">
            <Array as="points">
              <mxPoint x="720" y="465" />
            </Array>
          </mxGeometry>
        </mxCell>
        <mxCell id="b-Ls0eRmgNrHy9NxxaQL-3" value="Jira" style="rounded=1;whiteSpace=wrap;html=1;fillColor=#e1d5e7;strokeColor=#9673a6;" vertex="1" parent="1">
          <mxGeometry x="650" y="230" width="130" height="70" as="geometry" />
        </mxCell>
        <mxCell id="b-Ls0eRmgNrHy9NxxaQL-11" style="edgeStyle=orthogonalEdgeStyle;rounded=0;orthogonalLoop=1;jettySize=auto;html=1;entryX=0.5;entryY=0;entryDx=0;entryDy=0;" edge="1" parent="1" source="b-Ls0eRmgNrHy9NxxaQL-5" target="b-Ls0eRmgNrHy9NxxaQL-9">
          <mxGeometry relative="1" as="geometry" />
        </mxCell>
        <mxCell id="b-Ls0eRmgNrHy9NxxaQL-5" value="Microservice" style="rounded=0;whiteSpace=wrap;html=1;fillColor=#dae8fc;strokeColor=#6c8ebf;" vertex="1" parent="1">
          <mxGeometry x="390" y="430" width="170" height="70" as="geometry" />
        </mxCell>
        <mxCell id="b-Ls0eRmgNrHy9NxxaQL-6" value="" style="shape=image;html=1;verticalAlign=top;verticalLabelPosition=bottom;labelBackgroundColor=#ffffff;imageAspect=0;aspect=fixed;image=https://cdn1.iconfinder.com/data/icons/unicons-line-vol-3/24/docker-128.png" vertex="1" parent="1">
          <mxGeometry x="530" y="430" width="30" height="30" as="geometry" />
        </mxCell>
        <mxCell id="b-Ls0eRmgNrHy9NxxaQL-8" value="Grafana Dashboard" style="rounded=0;whiteSpace=wrap;html=1;fillColor=#ffe6cc;strokeColor=#d79b00;" vertex="1" parent="1">
          <mxGeometry x="340" y="650" width="270" height="90" as="geometry" />
        </mxCell>
        <mxCell id="b-Ls0eRmgNrHy9NxxaQL-9" value="Datasource Plugin" style="rounded=0;whiteSpace=wrap;html=1;fillColor=#fff2cc;strokeColor=#d6b656;" vertex="1" parent="1">
          <mxGeometry x="340" y="590" width="270" height="60" as="geometry" />
        </mxCell>
        <mxCell id="b-Ls0eRmgNrHy9NxxaQL-10" value="" style="endArrow=classic;html=1;rounded=0;exitX=0.5;exitY=1;exitDx=0;exitDy=0;entryX=0;entryY=0.5;entryDx=0;entryDy=0;" edge="1" parent="1" source="b-Ls0eRmgNrHy9NxxaQL-1" target="b-Ls0eRmgNrHy9NxxaQL-5">
          <mxGeometry width="50" height="50" relative="1" as="geometry">
            <mxPoint x="450" y="500" as="sourcePoint" />
            <mxPoint x="500" y="450" as="targetPoint" />
            <Array as="points">
              <mxPoint x="225" y="465" />
            </Array>
          </mxGeometry>
        </mxCell>
        <mxCell id="b-Ls0eRmgNrHy9NxxaQL-14" value="Processed data" style="text;html=1;align=center;verticalAlign=middle;resizable=0;points=[];autosize=1;strokeColor=none;fillColor=none;" vertex="1" parent="1">
          <mxGeometry x="470" y="530" width="100" height="20" as="geometry" />
        </mxCell>
        <mxCell id="b-Ls0eRmgNrHy9NxxaQL-15" value="Raw data" style="text;html=1;align=center;verticalAlign=middle;resizable=0;points=[];autosize=1;strokeColor=none;fillColor=none;" vertex="1" parent="1">
          <mxGeometry x="720" y="360" width="70" height="20" as="geometry" />
        </mxCell>
        <mxCell id="b-Ls0eRmgNrHy9NxxaQL-16" value="Raw data" style="text;html=1;align=center;verticalAlign=middle;resizable=0;points=[];autosize=1;strokeColor=none;fillColor=none;" vertex="1" parent="1">
          <mxGeometry x="480" y="360" width="70" height="20" as="geometry" />
        </mxCell>
        <mxCell id="b-Ls0eRmgNrHy9NxxaQL-17" value="Raw data" style="text;html=1;align=center;verticalAlign=middle;resizable=0;points=[];autosize=1;strokeColor=none;fillColor=none;" vertex="1" parent="1">
          <mxGeometry x="230" y="360" width="70" height="20" as="geometry" />
        </mxCell>
      </root>
    </mxGraphModel>
  </diagram>
</mxfile>
